# xmcd
#
# Track frame offsets:
#  150
#  11571
#  24800
#  40146
#  50386
#  61636
#  71238
#  85121
#  103103
#  118139
#
# Disc length: 1777 seconds
#
# Revision: 1
# Processed by: cddbd v1.5.1PL2 Copyright (c) Steve Scherf et al.
# Submitted via: Collectorz.com_Music_Collector 6.9
#
DISCID=7806ef0a
DTITLE=Various Artist - Country Christmas Favorites
DYEAR=2005
DGENRE=
TTITLE0=Bobby Bare - Santa Claus Is Coming To Town
TTITLE1=Lee Greenwood - O Holy Night
TTITLE2=Larry Gatlin - No Star In Bethlehem
TTITLE3=Crystal Gayle - Winter Wonderland
TTITLE4=Willie Nelson - Pretty Paper
TTITLE5=Brenda Lee - Rockin' Around The Christmas Tree
TTITLE6=David Houston - Silent Night
TTITLE7=Margo Smith - The Twelve Days Of Christmas
TTITLE8=Dobie Gray - O Come All Ye Faithful
TTITLE9=Roy Drusky - White Christmas
EXTD=
EXTT0=
EXTT1=
EXTT2=
EXTT3=
EXTT4=
EXTT5=
EXTT6=
EXTT7=
EXTT8=
EXTT9=
PLAYORDER=
